<svg width="640" height="360" viewBox="0 0 640 360" fill="none" xmlns="http://www.w3.org/2000/svg">
  <rect width="640" height="360" rx="24" fill="#F8FAFC"/>
  <rect x="62" y="48" width="516" height="264" rx="16" fill="white" stroke="#D8E2EE" stroke-width="3"/>
  <rect x="92" y="80" width="118" height="202" rx="10" fill="#EEF6FF"/>
  <rect x="112" y="108" width="74" height="10" rx="5" fill="#061226"/>
  <rect x="112" y="144" width="76" height="18" rx="6" fill="#DCE8F5"/>
  <rect x="112" y="180" width="62" height="10" rx="5" fill="#8AA4C1"/>
  <rect x="112" y="214" width="78" height="10" rx="5" fill="#8AA4C1"/>
  <rect x="112" y="248" width="54" height="10" rx="5" fill="#8AA4C1"/>
  <rect x="252" y="84" width="88" height="18" rx="9" fill="#18B981"/>
  <rect x="252" y="122" width="184" height="26" rx="6" fill="#061226"/>
  <rect x="252" y="166" width="278" height="54" rx="12" fill="white" stroke="#D8E2EE" stroke-width="3"/>
  <rect x="252" y="244" width="130" height="38" rx="10" fill="#EEF6FF"/>
  <rect x="402" y="244" width="130" height="38" rx="10" fill="#EEF6FF"/>
  <rect x="252" y="166" width="6" height="54" rx="3" fill="#0B5EA8"/>
</svg>
