<svg xmlns="http://www.w3.org/2000/svg" width="480" height="320" fill="none" viewBox="0 0 480 320">
  <rect width="480" height="320" fill="#F8FAF8"/>
  <rect width="220" height="24" x="130" y="42" rx="12" fill="#235347"/>
  <rect width="320" height="16" x="80" y="82" rx="8" fill="#D7E7DF"/>
  <rect width="260" height="16" x="110" y="106" rx="8" fill="#D7E7DF"/>
  <rect width="104" height="142" x="56" y="158" rx="12" fill="#fff" stroke="#D7E7DF" stroke-width="3"/>
  <rect width="104" height="142" x="188" y="158" rx="12" fill="#fff" stroke="#D7E7DF" stroke-width="3"/>
  <rect width="104" height="142" x="320" y="158" rx="12" fill="#fff" stroke="#D7E7DF" stroke-width="3"/>
  <circle cx="108" cy="198" r="22" fill="#E8F2ED"/>
  <circle cx="240" cy="198" r="22" fill="#E8F2ED"/>
  <circle cx="372" cy="198" r="22" fill="#E8F2ED"/>
  <path fill="#235347" d="M108 184a10 10 0 0 1 10 10c0 5.52-4.48 10-10 10s-10-4.48-10-10a10 10 0 0 1 10-10Zm-20 48c2.1-11 9.26-18 20-18s17.9 7 20 18H88Z"/>
  <path fill="#235347" d="M240 184a10 10 0 0 1 10 10c0 5.52-4.48 10-10 10s-10-4.48-10-10a10 10 0 0 1 10-10Zm-20 48c2.1-11 9.26-18 20-18s17.9 7 20 18h-40Z"/>
  <path fill="#235347" d="M372 184a10 10 0 0 1 10 10c0 5.52-4.48 10-10 10s-10-4.48-10-10a10 10 0 0 1 10-10Zm-20 48c2.1-11 9.26-18 20-18s17.9 7 20 18h-40Z"/>
  <rect width="56" height="9" x="80" y="248" rx="4.5" fill="#235347"/>
  <rect width="64" height="8" x="76" y="268" rx="4" fill="#D7E7DF"/>
  <rect width="56" height="9" x="212" y="248" rx="4.5" fill="#235347"/>
  <rect width="64" height="8" x="208" y="268" rx="4" fill="#D7E7DF"/>
  <rect width="56" height="9" x="344" y="248" rx="4.5" fill="#235347"/>
  <rect width="64" height="8" x="340" y="268" rx="4" fill="#D7E7DF"/>
</svg>
